<svg width="984" height="96" viewBox="0 0 984 96" fill="none" xmlns="http://www.w3.org/2000/svg">
<path d="M0.272728 94V0.909088H31.7273C39.0303 0.909088 45 2.22727 49.6364 4.86363C54.303 7.4697 57.7576 11 60 15.4545C62.2424 19.9091 63.3636 24.8788 63.3636 30.3636C63.3636 35.8485 62.2424 40.8333 60 45.3182C57.7879 49.803 54.3636 53.3788 49.7273 56.0455C45.0909 58.6818 39.1515 60 31.9091 60H9.36364V50H31.5455C36.5455 50 40.5606 49.1364 43.5909 47.4091C46.6212 45.6818 48.8182 43.3485 50.1818 40.4091C51.5758 37.4394 52.2727 34.0909 52.2727 30.3636C52.2727 26.6364 51.5758 23.303 50.1818 20.3636C48.8182 17.4242 46.6061 15.1212 43.5455 13.4545C40.4849 11.7576 36.4242 10.9091 31.3636 10.9091H11.5455V94H0.272728ZM108.591 95.4545C101.864 95.4545 96.0606 93.9697 91.1818 91C86.3333 88 82.5909 83.8182 79.9545 78.4545C77.3485 73.0606 76.0455 66.7879 76.0455 59.6364C76.0455 52.4848 77.3485 46.1818 79.9545 40.7273C82.5909 35.2424 86.2576 30.9697 90.9545 27.9091C95.6818 24.8182 101.197 23.2727 107.5 23.2727C111.136 23.2727 114.727 23.8788 118.273 25.0909C121.818 26.303 125.045 28.2727 127.955 31C130.864 33.697 133.182 37.2727 134.909 41.7273C136.636 46.1818 137.5 51.6667 137.5 58.1818V62.7273H83.6818V53.4545H126.591C126.591 49.5151 125.803 46 124.227 42.9091C122.682 39.8182 120.47 37.3788 117.591 35.5909C114.742 33.803 111.379 32.9091 107.5 32.9091C103.227 32.9091 99.5303 33.9697 96.4091 36.0909C93.3182 38.1818 90.9394 40.9091 89.2727 44.2727C87.6061 47.6364 86.7727 51.2424 86.7727 55.0909V61.2727C86.7727 66.5455 87.6818 71.0152 89.5 74.6818C91.3485 78.3182 93.9091 81.0909 97.1818 83C100.455 84.8788 104.258 85.8182 108.591 85.8182C111.409 85.8182 113.955 85.4242 116.227 84.6364C118.53 83.8182 120.515 82.6061 122.182 81C123.848 79.3636 125.136 77.3333 126.045 74.9091L136.409 77.8182C135.318 81.3333 133.485 84.4242 130.909 87.0909C128.333 89.7273 125.152 91.7879 121.364 93.2727C117.576 94.7273 113.318 95.4545 108.591 95.4545ZM153.818 94V24.1818H164.182V34.7273H164.909C166.182 31.2727 168.485 28.4697 171.818 26.3182C175.152 24.1667 178.909 23.0909 183.091 23.0909C183.879 23.0909 184.864 23.1061 186.045 23.1364C187.227 23.1667 188.121 23.2121 188.727 23.2727V34.1818C188.364 34.0909 187.53 33.9545 186.227 33.7727C184.955 33.5606 183.606 33.4545 182.182 33.4545C178.788 33.4545 175.758 34.1667 173.091 35.5909C170.455 36.9848 168.364 38.9242 166.818 41.4091C165.303 43.8636 164.545 46.6667 164.545 49.8182V94H153.818ZM250.898 39.8182L241.261 42.5455C240.655 40.9394 239.761 39.3788 238.58 37.8636C237.428 36.3182 235.852 35.0455 233.852 34.0455C231.852 33.0455 229.292 32.5455 226.17 32.5455C221.898 32.5455 218.337 33.5303 215.489 35.5C212.67 37.4394 211.261 39.9091 211.261 42.9091C211.261 45.5758 212.231 47.6818 214.17 49.2273C216.11 50.7727 219.14 52.0606 223.261 53.0909L233.625 55.6364C239.867 57.1515 244.519 59.4697 247.58 62.5909C250.64 65.6818 252.17 69.6667 252.17 74.5455C252.17 78.5455 251.019 82.1212 248.716 85.2727C246.443 88.4242 243.261 90.9091 239.17 92.7273C235.08 94.5455 230.322 95.4545 224.898 95.4545C217.777 95.4545 211.883 93.9091 207.216 90.8182C202.549 87.7273 199.595 83.2121 198.352 77.2727L208.534 74.7273C209.504 78.4848 211.337 81.303 214.034 83.1818C216.761 85.0606 220.322 86 224.716 86C229.716 86 233.686 84.9394 236.625 82.8182C239.595 80.6667 241.08 78.0909 241.08 75.0909C241.08 72.6667 240.231 70.6364 238.534 69C236.837 67.3333 234.231 66.0909 230.716 65.2727L219.08 62.5455C212.686 61.0303 207.989 58.6818 204.989 55.5C202.019 52.2879 200.534 48.2727 200.534 43.4545C200.534 39.5151 201.64 36.0303 203.852 33C206.095 29.9697 209.14 27.5909 212.989 25.8636C216.867 24.1364 221.261 23.2727 226.17 23.2727C233.08 23.2727 238.504 24.7879 242.443 27.8182C246.413 30.8485 249.231 34.8485 250.898 39.8182ZM296.682 95.4545C290.379 95.4545 284.848 93.9545 280.091 90.9545C275.364 87.9545 271.667 83.7576 269 78.3636C266.364 72.9697 265.045 66.6667 265.045 59.4545C265.045 52.1818 266.364 45.8333 269 40.4091C271.667 34.9848 275.364 30.7727 280.091 27.7727C284.848 24.7727 290.379 23.2727 296.682 23.2727C302.985 23.2727 308.5 24.7727 313.227 27.7727C317.985 30.7727 321.682 34.9848 324.318 40.4091C326.985 45.8333 328.318 52.1818 328.318 59.4545C328.318 66.6667 326.985 72.9697 324.318 78.3636C321.682 83.7576 317.985 87.9545 313.227 90.9545C308.5 93.9545 302.985 95.4545 296.682 95.4545ZM296.682 85.8182C301.47 85.8182 305.409 84.5909 308.5 82.1364C311.591 79.6818 313.879 76.4545 315.364 72.4545C316.848 68.4545 317.591 64.1212 317.591 59.4545C317.591 54.7879 316.848 50.4394 315.364 46.4091C313.879 42.3788 311.591 39.1212 308.5 36.6364C305.409 34.1515 301.47 32.9091 296.682 32.9091C291.894 32.9091 287.955 34.1515 284.864 36.6364C281.773 39.1212 279.485 42.3788 278 46.4091C276.515 50.4394 275.773 54.7879 275.773 59.4545C275.773 64.1212 276.515 68.4545 278 72.4545C279.485 76.4545 281.773 79.6818 284.864 82.1364C287.955 84.5909 291.894 85.8182 296.682 85.8182ZM355.42 52V94H344.693V24.1818H355.057V35.0909H355.966C357.602 31.5455 360.087 28.697 363.42 26.5455C366.754 24.3636 371.057 23.2727 376.33 23.2727C381.057 23.2727 385.193 24.2424 388.739 26.1818C392.284 28.0909 395.042 31 397.011 34.9091C398.981 38.7879 399.966 43.697 399.966 49.6364V94H389.239V50.3636C389.239 44.8788 387.814 40.6061 384.966 37.5455C382.117 34.4545 378.208 32.9091 373.239 32.9091C369.814 32.9091 366.754 33.6515 364.057 35.1364C361.39 36.6212 359.284 38.7879 357.739 41.6364C356.193 44.4848 355.42 47.9394 355.42 52ZM440.114 95.6364C435.689 95.6364 431.674 94.803 428.068 93.1364C424.462 91.4394 421.598 89 419.477 85.8182C417.356 82.6061 416.295 78.7273 416.295 74.1818C416.295 70.1818 417.083 66.9394 418.659 64.4545C420.235 61.9394 422.341 59.9697 424.977 58.5455C427.614 57.1212 430.523 56.0606 433.705 55.3636C436.917 54.6364 440.144 54.0606 443.386 53.6364C447.629 53.0909 451.068 52.6818 453.705 52.4091C456.371 52.1061 458.311 51.6061 459.523 50.9091C460.765 50.2121 461.386 49 461.386 47.2727V46.9091C461.386 42.4242 460.159 38.9394 457.705 36.4545C455.28 33.9697 451.598 32.7273 446.659 32.7273C441.538 32.7273 437.523 33.8485 434.614 36.0909C431.705 38.3333 429.659 40.7273 428.477 43.2727L418.295 39.6364C420.114 35.3939 422.538 32.0909 425.568 29.7273C428.629 27.3333 431.962 25.6667 435.568 24.7273C439.205 23.7576 442.78 23.2727 446.295 23.2727C448.538 23.2727 451.114 23.5455 454.023 24.0909C456.962 24.6061 459.795 25.6818 462.523 27.3182C465.28 28.9545 467.568 31.4242 469.386 34.7273C471.205 38.0303 472.114 42.4545 472.114 48V94H461.386V84.5455H460.841C460.114 86.0606 458.902 87.6818 457.205 89.4091C455.508 91.1364 453.25 92.6061 450.432 93.8182C447.614 95.0303 444.174 95.6364 440.114 95.6364ZM441.75 86C445.992 86 449.568 85.1667 452.477 83.5C455.417 81.8333 457.629 79.6818 459.114 77.0455C460.629 74.4091 461.386 71.6364 461.386 68.7273V58.9091C460.932 59.4545 459.932 59.9545 458.386 60.4091C456.871 60.8333 455.114 61.2121 453.114 61.5455C451.144 61.8485 449.22 62.1212 447.341 62.3636C445.492 62.5758 443.992 62.7576 442.841 62.9091C440.053 63.2727 437.447 63.8636 435.023 64.6818C432.629 65.4697 430.689 66.6667 429.205 68.2727C427.75 69.8485 427.023 72 427.023 74.7273C427.023 78.4545 428.402 81.2727 431.159 83.1818C433.947 85.0606 437.477 86 441.75 86ZM502.42 0.909088V94H491.693V0.909088H502.42ZM595.159 0.909088H606.432V67.4545C606.432 73.3939 605.341 78.4394 603.159 82.5909C600.977 86.7424 597.902 89.8939 593.932 92.0455C589.962 94.197 585.28 95.2727 579.886 95.2727C574.795 95.2727 570.265 94.3485 566.295 92.5C562.326 90.6212 559.205 87.9545 556.932 84.5C554.659 81.0455 553.523 76.9394 553.523 72.1818H564.614C564.614 74.8182 565.265 77.1212 566.568 79.0909C567.902 81.0303 569.72 82.5455 572.023 83.6364C574.326 84.7273 576.947 85.2727 579.886 85.2727C583.129 85.2727 585.886 84.5909 588.159 83.2273C590.432 81.8636 592.159 79.8636 593.341 77.2273C594.553 74.5606 595.159 71.303 595.159 67.4545V0.909088ZM655.932 95.4545C649.629 95.4545 644.098 93.9545 639.341 90.9545C634.614 87.9545 630.917 83.7576 628.25 78.3636C625.614 72.9697 624.295 66.6667 624.295 59.4545C624.295 52.1818 625.614 45.8333 628.25 40.4091C630.917 34.9848 634.614 30.7727 639.341 27.7727C644.098 24.7727 649.629 23.2727 655.932 23.2727C662.235 23.2727 667.75 24.7727 672.477 27.7727C677.235 30.7727 680.932 34.9848 683.568 40.4091C686.235 45.8333 687.568 52.1818 687.568 59.4545C687.568 66.6667 686.235 72.9697 683.568 78.3636C680.932 83.7576 677.235 87.9545 672.477 90.9545C667.75 93.9545 662.235 95.4545 655.932 95.4545ZM655.932 85.8182C660.72 85.8182 664.659 84.5909 667.75 82.1364C670.841 79.6818 673.129 76.4545 674.614 72.4545C676.098 68.4545 676.841 64.1212 676.841 59.4545C676.841 54.7879 676.098 50.4394 674.614 46.4091C673.129 42.3788 670.841 39.1212 667.75 36.6364C664.659 34.1515 660.72 32.9091 655.932 32.9091C651.144 32.9091 647.205 34.1515 644.114 36.6364C641.023 39.1212 638.735 42.3788 637.25 46.4091C635.765 50.4394 635.023 54.7879 635.023 59.4545C635.023 64.1212 635.765 68.4545 637.25 72.4545C638.735 76.4545 641.023 79.6818 644.114 82.1364C647.205 84.5909 651.144 85.8182 655.932 85.8182ZM747.943 65.4545V24.1818H758.67V94H747.943V82.1818H747.216C745.58 85.7273 743.034 88.7424 739.58 91.2273C736.125 93.6818 731.761 94.9091 726.489 94.9091C722.125 94.9091 718.246 93.9545 714.852 92.0455C711.458 90.1061 708.792 87.197 706.852 83.3182C704.913 79.4091 703.943 74.4848 703.943 68.5455V24.1818H714.67V67.8182C714.67 72.9091 716.095 76.9697 718.943 80C721.822 83.0303 725.489 84.5455 729.943 84.5455C732.61 84.5455 735.322 83.8636 738.08 82.5C740.867 81.1364 743.201 79.0455 745.08 76.2273C746.989 73.4091 747.943 69.8182 747.943 65.4545ZM778.318 94V24.1818H788.682V34.7273H789.409C790.682 31.2727 792.985 28.4697 796.318 26.3182C799.652 24.1667 803.409 23.0909 807.591 23.0909C808.379 23.0909 809.364 23.1061 810.545 23.1364C811.727 23.1667 812.621 23.2121 813.227 23.2727V34.1818C812.864 34.0909 812.03 33.9545 810.727 33.7727C809.455 33.5606 808.106 33.4545 806.682 33.4545C803.288 33.4545 800.258 34.1667 797.591 35.5909C794.955 36.9848 792.864 38.9242 791.318 41.4091C789.803 43.8636 789.045 46.6667 789.045 49.8182V94H778.318ZM836.67 52V94H825.943V24.1818H836.307V35.0909H837.216C838.852 31.5455 841.337 28.697 844.67 26.5455C848.004 24.3636 852.307 23.2727 857.58 23.2727C862.307 23.2727 866.443 24.2424 869.989 26.1818C873.534 28.0909 876.292 31 878.261 34.9091C880.231 38.7879 881.216 43.697 881.216 49.6364V94H870.489V50.3636C870.489 44.8788 869.064 40.6061 866.216 37.5455C863.367 34.4545 859.458 32.9091 854.489 32.9091C851.064 32.9091 848.004 33.6515 845.307 35.1364C842.64 36.6212 840.534 38.7879 838.989 41.6364C837.443 44.4848 836.67 47.9394 836.67 52ZM921.364 95.6364C916.939 95.6364 912.924 94.803 909.318 93.1364C905.712 91.4394 902.848 89 900.727 85.8182C898.606 82.6061 897.545 78.7273 897.545 74.1818C897.545 70.1818 898.333 66.9394 899.909 64.4545C901.485 61.9394 903.591 59.9697 906.227 58.5455C908.864 57.1212 911.773 56.0606 914.955 55.3636C918.167 54.6364 921.394 54.0606 924.636 53.6364C928.879 53.0909 932.318 52.6818 934.955 52.4091C937.621 52.1061 939.561 51.6061 940.773 50.9091C942.015 50.2121 942.636 49 942.636 47.2727V46.9091C942.636 42.4242 941.409 38.9394 938.955 36.4545C936.53 33.9697 932.848 32.7273 927.909 32.7273C922.788 32.7273 918.773 33.8485 915.864 36.0909C912.955 38.3333 910.909 40.7273 909.727 43.2727L899.545 39.6364C901.364 35.3939 903.788 32.0909 906.818 29.7273C909.879 27.3333 913.212 25.6667 916.818 24.7273C920.455 23.7576 924.03 23.2727 927.545 23.2727C929.788 23.2727 932.364 23.5455 935.273 24.0909C938.212 24.6061 941.045 25.6818 943.773 27.3182C946.53 28.9545 948.818 31.4242 950.636 34.7273C952.455 38.0303 953.364 42.4545 953.364 48V94H942.636V84.5455H942.091C941.364 86.0606 940.152 87.6818 938.455 89.4091C936.758 91.1364 934.5 92.6061 931.682 93.8182C928.864 95.0303 925.424 95.6364 921.364 95.6364ZM923 86C927.242 86 930.818 85.1667 933.727 83.5C936.667 81.8333 938.879 79.6818 940.364 77.0455C941.879 74.4091 942.636 71.6364 942.636 68.7273V58.9091C942.182 59.4545 941.182 59.9545 939.636 60.4091C938.121 60.8333 936.364 61.2121 934.364 61.5455C932.394 61.8485 930.47 62.1212 928.591 62.3636C926.742 62.5758 925.242 62.7576 924.091 62.9091C921.303 63.2727 918.697 63.8636 916.273 64.6818C913.879 65.4697 911.939 66.6667 910.455 68.2727C909 69.8485 908.273 72 908.273 74.7273C908.273 78.4545 909.652 81.2727 912.409 83.1818C915.197 85.0606 918.727 86 923 86ZM983.67 0.909088V94H972.943V0.909088H983.67Z" fill="white"/>
</svg>
