<svg width="870" height="91" viewBox="0 0 870 91" fill="none" xmlns="http://www.w3.org/2000/svg">
<path d="M21.296 83.88C19.6747 77.3947 18.4373 70.8667 17.584 64.296C16.7307 57.64 15.9627 46.7173 15.28 31.528C15.28 30.504 15.6213 29.608 16.304 28.84C17.072 28.072 17.9253 27.688 18.864 27.688H20.016C20.4427 30.504 20.7413 35.0267 20.912 41.256C20.912 41.9387 20.9973 44.2427 21.168 48.168C21.3387 52.008 21.7653 55.6347 22.448 59.048C32.3467 58.1093 40.24 56.1893 46.128 53.288C52.1013 50.3867 55.088 46.248 55.088 40.872C55.088 34.1307 52.1013 28.6267 46.128 24.36C40.1547 20.0933 31.152 17.96 19.12 17.96C14.0853 17.96 9.81867 18.8987 6.32 20.776C5.72267 21.032 5.296 21.5867 5.04 22.44C4.784 23.208 4.57067 24.3173 4.4 25.768C4.22933 27.304 4.016 28.456 3.76 29.224C3.504 29.992 3.03467 30.376 2.352 30.376C1.584 30.376 1.072 29.8213 0.816 28.712C0.645334 27.5173 0.56 24.8293 0.56 20.648C0.56 18.2587 2.18133 16.3813 5.424 15.016C8.66667 13.6507 12.848 12.968 17.968 12.968C32.9013 12.968 43.9947 15.3147 51.248 20.008C58.5013 24.7013 62.128 31.912 62.128 41.64C62.128 46.8453 60.0373 51.1973 55.856 54.696C51.6747 58.1947 46.5973 60.7973 40.624 62.504C34.6507 64.1253 28.9333 64.936 23.472 64.936C23.6427 65.96 23.8133 66.8987 23.984 67.752C24.1547 68.6053 24.2827 69.3307 24.368 69.928C25.5627 75.7307 26.16 80.2107 26.16 83.368C26.16 85.2453 25.904 86.7387 25.392 87.848C24.9653 88.9573 23.984 89.3413 22.448 89L21.296 83.88ZM99.703 89C94.2417 89 89.207 87.9333 84.599 85.8C79.991 83.6667 76.3217 80.6373 73.591 76.712C70.8603 72.7867 69.495 68.264 69.495 63.144C69.495 57.4267 70.5617 52.0933 72.695 47.144C74.8283 42.1093 77.943 38.0987 82.039 35.112C86.2203 32.04 91.0843 30.504 96.631 30.504C102.434 30.504 106.828 32.3813 109.815 36.136C112.802 39.8053 114.21 44.456 114.039 50.088C114.039 55.1227 112.034 58.9627 108.023 61.608C104.098 64.2533 99.063 65.576 92.919 65.576C91.9803 65.576 90.5723 65.4907 88.695 65.32C85.623 64.9787 83.447 64.5093 82.167 63.912C80.887 63.3147 80.247 62.12 80.247 60.328C80.247 59.7307 80.4177 59.304 80.759 59.048C81.1003 58.7067 81.783 58.536 82.807 58.536C83.9163 58.536 85.879 58.792 88.695 59.304C91.4257 59.816 93.8577 60.072 95.991 60.072C103.842 60.072 107.767 56.6587 107.767 49.832C107.767 45.736 106.999 42.4933 105.463 40.104C104.012 37.7147 101.41 36.52 97.655 36.52C93.559 36.52 89.8897 37.6293 86.647 39.848C83.4043 41.9813 80.887 44.7973 79.095 48.296C77.3883 51.7947 76.535 55.5067 76.535 59.432C76.535 66.1733 78.4123 71.72 82.167 76.072C85.9217 80.3387 91.7243 82.472 99.575 82.472C100.514 82.472 102.092 82.3867 104.311 82.216C105.25 82.1307 106.402 81.8747 107.767 81.448C109.132 81.0213 110.114 80.7227 110.711 80.552C114.38 79.272 117.068 78.632 118.775 78.632C120.055 78.632 121.036 78.9733 121.719 79.656C119.586 82.8987 116.386 85.288 112.119 86.824C107.938 88.2747 103.799 89 99.703 89ZM138.134 89C134.635 82.1733 131.862 74.152 129.814 64.936C127.851 55.72 126.87 47.7413 126.87 41C126.87 38.3547 127.467 36.648 128.662 35.88C129.345 35.4533 129.857 35.24 130.198 35.24C130.795 35.24 131.222 35.7093 131.478 36.648C131.819 37.5867 132.161 39.2933 132.502 41.768L133.142 46.376C134.081 41.768 135.873 38.1413 138.518 35.496C141.249 32.7653 144.577 31.4 148.502 31.4C152.854 31.4 156.097 32.2533 158.23 33.96C160.363 35.5813 161.43 38.312 161.43 42.152C157.163 40.104 153.281 39.08 149.782 39.08C146.454 39.08 143.595 39.976 141.206 41.768C138.817 43.56 137.153 46.2053 136.214 49.704C135.446 52.0933 135.062 54.3547 135.062 56.488C135.062 58.792 135.361 60.968 135.958 63.016C136.641 64.9787 137.665 67.4107 139.03 70.312C140.31 73.2987 141.291 75.8587 141.974 77.992C142.742 80.1253 143.169 82.4293 143.254 84.904C143.254 86.3547 142.742 87.4213 141.718 88.104C140.694 88.7013 139.499 89 138.134 89ZM167.135 73.896C168.33 72.9573 169.482 72.488 170.591 72.488C171.615 72.488 172.596 72.7867 173.535 73.384C174.559 73.9813 175.583 74.7493 176.607 75.688C177.631 76.5413 178.442 77.1813 179.039 77.608C181.002 79.144 183.69 80.3387 187.103 81.192C190.516 82.0453 194.143 82.472 197.983 82.472C202.335 82.472 206.218 81.6613 209.631 80.04C213.13 78.3333 214.879 76.072 214.879 73.256C214.879 70.696 213.94 68.6907 212.063 67.24C210.186 65.704 207.924 64.5947 205.279 63.912C202.634 63.2293 199.135 62.5893 194.783 61.992C188.895 61.3093 184.202 60.456 180.703 59.432C177.29 58.408 174.559 56.744 172.511 54.44C170.463 52.0507 169.439 48.7227 169.439 44.456C169.439 39.848 171.615 36.4347 175.967 34.216C180.319 31.912 185.311 30.76 190.943 30.76C196.063 30.76 200.415 31.8693 203.999 34.088C207.668 36.2213 209.546 39.2933 209.631 43.304C209.802 45.608 209.46 47.4427 208.607 48.808C207.754 50.088 206.73 50.728 205.535 50.728C204.852 50.728 204.255 50.472 203.743 49.96C203.316 49.448 203.103 48.7653 203.103 47.912C203.103 46.5467 203.572 45.0533 204.511 43.432C204.084 41.384 202.676 39.848 200.287 38.824C197.983 37.8 195.21 37.288 191.967 37.288C187.188 37.288 183.391 38.184 180.575 39.976C177.759 41.6827 176.351 43.7307 176.351 46.12C176.351 48.68 177.375 50.6427 179.423 52.008C181.471 53.3733 183.946 54.3547 186.847 54.952C189.834 55.464 194.058 55.976 199.519 56.488C204.042 57.0853 207.711 57.8107 210.527 58.664C213.428 59.5173 215.86 61.1813 217.823 63.656C219.786 66.0453 220.767 69.5013 220.767 74.024C220.767 78.7173 218.591 82.4293 214.239 85.16C209.887 87.8053 204.682 89.128 198.623 89.128C190.858 89.128 183.903 87.8053 177.759 85.16C171.7 82.5147 168.159 78.76 167.135 73.896ZM258.116 89.128C253.081 89.128 248.516 88.0187 244.42 85.8C240.409 83.496 237.252 80.3387 234.948 76.328C232.729 72.232 231.62 67.5813 231.62 62.376C231.62 53.8427 234.735 47.4853 240.964 43.304C247.279 39.1227 255.001 37.032 264.132 37.032C268.313 37.032 272.196 38.056 275.78 40.104C279.449 42.152 282.393 45.096 284.612 48.936C286.831 52.776 287.94 57.2133 287.94 62.248C287.94 67.7093 286.532 72.488 283.716 76.584C280.9 80.5947 277.188 83.7093 272.58 85.928C268.057 88.0613 263.236 89.128 258.116 89.128ZM256.708 81.832C264.644 81.832 270.66 80.04 274.756 76.456C278.852 72.872 280.9 67.624 280.9 60.712C280.9 56.0187 279.279 51.9653 276.036 48.552C272.879 45.1387 268.441 43.432 262.724 43.432C258.884 43.432 255.001 44.1573 251.076 45.608C247.151 47.0587 243.908 49.2347 241.348 52.136C238.788 55.0373 237.508 58.536 237.508 62.632C237.508 66.0453 238.361 69.2453 240.068 72.232C241.775 75.1333 244.079 77.48 246.98 79.272C249.967 80.9787 253.209 81.832 256.708 81.832ZM310.28 89.512C309.085 89.8533 308.403 90.024 308.232 90.024C307.549 90.024 306.824 89.6827 306.056 89C303.24 84.8187 301.192 77.5227 299.912 67.112C298.717 56.7013 298.12 47.7413 298.12 40.232C298.12 39.0373 298.973 38.44 300.68 38.44C303.24 38.44 304.52 39.848 304.52 42.664C304.52 43.432 304.477 44.072 304.392 44.584C305.16 42.792 306.611 40.9573 308.744 39.08C310.877 37.2027 313.352 35.624 316.168 34.344C318.984 33.064 321.843 32.424 324.744 32.424C333.875 32.424 340.531 36.4773 344.712 44.584C348.893 52.6053 350.984 62.5893 350.984 74.536C350.984 78.632 350.557 81.9173 349.704 84.392C348.851 86.7813 347.699 87.976 346.248 87.976C344.712 87.976 343.944 87.5067 343.944 86.568C344.541 82.0453 344.84 77.608 344.84 73.256C344.84 62.248 342.92 53.928 339.08 48.296C335.24 42.5787 330.163 39.72 323.848 39.72C320.776 39.72 317.789 40.488 314.888 42.024C312.072 43.56 309.768 45.6933 307.976 48.424C306.269 51.1547 305.416 54.2693 305.416 57.768C305.416 61.6933 305.629 65.1067 306.056 68.008C306.483 70.9093 307.165 74.408 308.104 78.504C309.128 82.5147 309.853 86.184 310.28 89.512ZM394.141 89C385.266 89 377.544 87.464 370.973 84.392C364.488 81.2347 361.245 75.7307 361.245 67.88C361.245 65.064 362.098 62.3333 363.805 59.688C365.512 57.0427 368.029 54.9093 371.357 53.288C374.685 51.5813 378.738 50.728 383.517 50.728C387.186 50.728 390.301 50.8987 392.861 51.24C395.421 51.5813 398.365 52.52 401.693 54.056C405.021 55.592 408.477 58.024 412.061 61.352C410.696 55.464 408.648 50.3013 405.917 45.864C403.186 41.4267 400.114 38.0133 396.701 35.624C393.373 33.1493 390.088 31.912 386.845 31.912C385.309 31.912 383.858 32.2107 382.493 32.808C381.213 33.32 379.634 34.088 377.757 35.112C375.624 36.4773 374.045 37.16 373.021 37.16C372.594 37.16 372.21 37.032 371.869 36.776C371.613 36.4347 371.485 36.0507 371.485 35.624C371.485 32.2107 372.978 29.5653 375.965 27.688C379.037 25.8107 382.749 24.9573 387.101 25.128C393.074 25.4693 398.536 28.0293 403.485 32.808C408.434 37.5013 412.317 43.3467 415.133 50.344C418.034 57.3413 419.485 64.2107 419.485 70.952C419.485 72.0613 419.4 73.64 419.229 75.688L415.133 75.432C411.89 68.8613 407.709 64.2107 402.589 61.48C397.554 58.664 392.477 57.256 387.357 57.256C380.786 57.256 376.093 58.2373 373.277 60.2C370.461 62.1627 369.053 65.0213 369.053 68.776C369.053 72.7013 371.016 75.8587 374.941 78.248C378.866 80.6373 383.901 81.832 390.045 81.832C393.458 81.832 396.189 81.6613 398.237 81.32C400.285 80.8933 402.418 80.3387 404.637 79.656C406.429 79.0587 408.008 78.632 409.373 78.376C410.738 78.12 412.488 77.992 414.621 77.992C417.01 77.992 418.504 78.1627 419.101 78.504C419.784 78.8453 420.125 79.6133 420.125 80.808C420.125 81.6613 418.376 82.728 414.877 84.008C411.378 85.288 407.453 86.44 403.101 87.464C398.749 88.488 395.762 89 394.141 89ZM437.41 88.104C435.533 78.8027 434.082 67.7947 433.058 55.08C432.119 42.28 431.65 29.9067 431.65 17.96C431.65 11.9867 431.778 6.696 432.034 2.088C432.034 0.978663 432.887 0.423996 434.594 0.423996C435.959 0.423996 436.813 0.76533 437.154 1.448C437.581 2.13066 437.794 3.19733 437.794 4.64799C437.794 18.472 438.05 30.2907 438.562 40.104C439.074 49.832 439.757 60.328 440.61 71.592C441.122 78.8453 441.463 83.752 441.634 86.312C441.719 87.6773 440.994 88.36 439.458 88.36C438.946 88.36 438.263 88.2747 437.41 88.104ZM515.486 89.128C503.71 89.0427 495.091 86.3973 489.63 81.192C484.169 75.9867 481.438 69.288 481.438 61.096C481.438 53.7573 483.443 50.088 487.454 50.088C488.222 50.4293 488.606 50.8133 488.606 51.24C488.606 51.5813 488.435 52.0507 488.094 52.648C487.838 53.2453 487.625 53.8 487.454 54.312C487.027 55.848 486.814 57.2987 486.814 58.664C486.814 62.4187 488.094 66.088 490.654 69.672C493.214 73.256 496.67 76.2 501.022 78.504C505.374 80.7227 510.025 81.832 514.974 81.832C518.643 81.832 521.502 80.2107 523.55 76.968C525.683 73.7253 526.75 68.7333 526.75 61.992C526.75 57.896 526.409 53.672 525.726 49.32L518.814 2.47199C519.753 1.19199 520.563 0.551994 521.246 0.551994C523.379 0.551994 525.214 4.392 526.75 12.072C528.286 19.6667 530.078 31.4 532.126 47.272L532.638 51.496C533.235 56.4453 533.534 60.328 533.534 63.144C533.534 71.592 531.998 78.0347 528.926 82.472C525.854 86.9093 521.374 89.128 515.486 89.128ZM572.866 89.128C567.831 89.128 563.266 88.0187 559.17 85.8C555.159 83.496 552.002 80.3387 549.698 76.328C547.479 72.232 546.37 67.5813 546.37 62.376C546.37 53.8427 549.485 47.4853 555.714 43.304C562.029 39.1227 569.751 37.032 578.882 37.032C583.063 37.032 586.946 38.056 590.53 40.104C594.199 42.152 597.143 45.096 599.362 48.936C601.581 52.776 602.69 57.2133 602.69 62.248C602.69 67.7093 601.282 72.488 598.466 76.584C595.65 80.5947 591.938 83.7093 587.33 85.928C582.807 88.0613 577.986 89.128 572.866 89.128ZM571.458 81.832C579.394 81.832 585.41 80.04 589.506 76.456C593.602 72.872 595.65 67.624 595.65 60.712C595.65 56.0187 594.029 51.9653 590.786 48.552C587.629 45.1387 583.191 43.432 577.474 43.432C573.634 43.432 569.751 44.1573 565.826 45.608C561.901 47.0587 558.658 49.2347 556.098 52.136C553.538 55.0373 552.258 58.536 552.258 62.632C552.258 66.0453 553.111 69.2453 554.818 72.232C556.525 75.1333 558.829 77.48 561.73 79.272C564.717 80.9787 567.959 81.832 571.458 81.832ZM671.75 88.36C670.214 88.36 668.977 87.72 668.038 86.44C667.185 85.0747 666.417 83.0267 665.734 80.296C665.051 77.48 663.985 72.616 662.534 65.704C661.083 71.4213 658.353 75.9867 654.342 79.4C650.331 82.728 645.425 84.392 639.622 84.392C634.331 84.392 629.851 82.5573 626.182 78.888C622.598 75.1333 619.91 70.2267 618.118 64.168C616.326 58.024 615.43 51.4107 615.43 44.328C615.43 41.0853 615.729 38.312 616.326 36.008C617.009 33.6187 617.819 31.8267 618.758 30.632C619.782 29.4373 620.763 28.8827 621.702 28.968C622.726 28.968 623.238 29.6507 623.238 31.016C623.238 32.1253 622.939 33.8747 622.342 36.264C621.745 38.9093 621.446 41.9387 621.446 45.352C621.446 50.472 622.171 55.464 623.622 60.328C625.158 65.192 627.377 69.2027 630.278 72.36C633.265 75.432 636.763 76.968 640.774 76.968C644.102 76.968 647.131 75.9867 649.862 74.024C652.593 72.0613 654.726 69.5867 656.262 66.6C657.883 63.6133 658.694 60.6693 658.694 57.768V37.416C659.633 35.624 660.913 34.728 662.534 34.728C663.985 34.728 664.966 35.9653 665.478 38.44C665.99 40.9147 666.246 44.4133 666.246 48.936C666.246 52.776 666.203 55.72 666.118 57.768C666.63 60.584 667.398 63.4427 668.422 66.344C669.531 69.2453 670.897 72.5307 672.518 76.2C674.481 80.7227 675.462 83.496 675.462 84.52C675.462 87.08 674.225 88.36 671.75 88.36ZM697.009 89C693.51 82.1733 690.737 74.152 688.689 64.936C686.726 55.72 685.745 47.7413 685.745 41C685.745 38.3547 686.342 36.648 687.537 35.88C688.22 35.4533 688.732 35.24 689.073 35.24C689.67 35.24 690.097 35.7093 690.353 36.648C690.694 37.5867 691.036 39.2933 691.377 41.768L692.017 46.376C692.956 41.768 694.748 38.1413 697.393 35.496C700.124 32.7653 703.452 31.4 707.377 31.4C711.729 31.4 714.972 32.2533 717.105 33.96C719.238 35.5813 720.305 38.312 720.305 42.152C716.038 40.104 712.156 39.08 708.657 39.08C705.329 39.08 702.47 39.976 700.081 41.768C697.692 43.56 696.028 46.2053 695.089 49.704C694.321 52.0933 693.937 54.3547 693.937 56.488C693.937 58.792 694.236 60.968 694.833 63.016C695.516 64.9787 696.54 67.4107 697.905 70.312C699.185 73.2987 700.166 75.8587 700.849 77.992C701.617 80.1253 702.044 82.4293 702.129 84.904C702.129 86.3547 701.617 87.4213 700.593 88.104C699.569 88.7013 698.374 89 697.009 89ZM737.53 89.512C736.335 89.8533 735.653 90.024 735.482 90.024C734.799 90.024 734.074 89.6827 733.306 89C730.49 84.8187 728.442 77.5227 727.162 67.112C725.967 56.7013 725.37 47.7413 725.37 40.232C725.37 39.0373 726.223 38.44 727.93 38.44C730.49 38.44 731.77 39.848 731.77 42.664C731.77 43.432 731.727 44.072 731.642 44.584C732.41 42.792 733.861 40.9573 735.994 39.08C738.127 37.2027 740.602 35.624 743.418 34.344C746.234 33.064 749.093 32.424 751.994 32.424C761.125 32.424 767.781 36.4773 771.962 44.584C776.143 52.6053 778.234 62.5893 778.234 74.536C778.234 78.632 777.807 81.9173 776.954 84.392C776.101 86.7813 774.949 87.976 773.498 87.976C771.962 87.976 771.194 87.5067 771.194 86.568C771.791 82.0453 772.09 77.608 772.09 73.256C772.09 62.248 770.17 53.928 766.33 48.296C762.49 42.5787 757.413 39.72 751.098 39.72C748.026 39.72 745.039 40.488 742.138 42.024C739.322 43.56 737.018 45.6933 735.226 48.424C733.519 51.1547 732.666 54.2693 732.666 57.768C732.666 61.6933 732.879 65.1067 733.306 68.008C733.733 70.9093 734.415 74.408 735.354 78.504C736.378 82.5147 737.103 86.184 737.53 89.512ZM821.391 89C812.516 89 804.794 87.464 798.223 84.392C791.738 81.2347 788.495 75.7307 788.495 67.88C788.495 65.064 789.348 62.3333 791.055 59.688C792.762 57.0427 795.279 54.9093 798.607 53.288C801.935 51.5813 805.988 50.728 810.767 50.728C814.436 50.728 817.551 50.8987 820.111 51.24C822.671 51.5813 825.615 52.52 828.943 54.056C832.271 55.592 835.727 58.024 839.311 61.352C837.946 55.464 835.898 50.3013 833.167 45.864C830.436 41.4267 827.364 38.0133 823.951 35.624C820.623 33.1493 817.338 31.912 814.095 31.912C812.559 31.912 811.108 32.2107 809.743 32.808C808.463 33.32 806.884 34.088 805.007 35.112C802.874 36.4773 801.295 37.16 800.271 37.16C799.844 37.16 799.46 37.032 799.119 36.776C798.863 36.4347 798.735 36.0507 798.735 35.624C798.735 32.2107 800.228 29.5653 803.215 27.688C806.287 25.8107 809.999 24.9573 814.351 25.128C820.324 25.4693 825.786 28.0293 830.735 32.808C835.684 37.5013 839.567 43.3467 842.383 50.344C845.284 57.3413 846.735 64.2107 846.735 70.952C846.735 72.0613 846.65 73.64 846.479 75.688L842.383 75.432C839.14 68.8613 834.959 64.2107 829.839 61.48C824.804 58.664 819.727 57.256 814.607 57.256C808.036 57.256 803.343 58.2373 800.527 60.2C797.711 62.1627 796.303 65.0213 796.303 68.776C796.303 72.7013 798.266 75.8587 802.191 78.248C806.116 80.6373 811.151 81.832 817.295 81.832C820.708 81.832 823.439 81.6613 825.487 81.32C827.535 80.8933 829.668 80.3387 831.887 79.656C833.679 79.0587 835.258 78.632 836.623 78.376C837.988 78.12 839.738 77.992 841.871 77.992C844.26 77.992 845.754 78.1627 846.351 78.504C847.034 78.8453 847.375 79.6133 847.375 80.808C847.375 81.6613 845.626 82.728 842.127 84.008C838.628 85.288 834.703 86.44 830.351 87.464C825.999 88.488 823.012 89 821.391 89ZM864.66 88.104C862.783 78.8027 861.332 67.7947 860.308 55.08C859.369 42.28 858.9 29.9067 858.9 17.96C858.9 11.9867 859.028 6.696 859.284 2.088C859.284 0.978663 860.137 0.423996 861.844 0.423996C863.209 0.423996 864.063 0.76533 864.404 1.448C864.831 2.13066 865.044 3.19733 865.044 4.64799C865.044 18.472 865.3 30.2907 865.812 40.104C866.324 49.832 867.007 60.328 867.86 71.592C868.372 78.8453 868.713 83.752 868.884 86.312C868.969 87.6773 868.244 88.36 866.708 88.36C866.196 88.36 865.513 88.2747 864.66 88.104Z" fill="white"/>
</svg>
